<svg width="221" height="84" viewBox="0 0 221 84" fill="none" xmlns="http://www.w3.org/2000/svg">
<g filter="url(#filter0_d_1083_1204)">
<rect x="7" y="3" width="207" height="70" rx="5" fill="#F5FBFF"/>
<rect x="7.5" y="3.5" width="206" height="69" rx="4.5" stroke="#E3E3E3"/>
</g>
<path d="M29.3506 35.0752V36.1152H25.0659V35.0752H29.3506ZM26.5161 33.1489H27.8711V41.0371C27.8711 41.3057 27.9126 41.5083 27.9956 41.645C28.0786 41.7817 28.186 41.8721 28.3179 41.916C28.4497 41.96 28.5913 41.9819 28.7427 41.9819C28.855 41.9819 28.9722 41.9722 29.0942 41.9526C29.2212 41.9282 29.3164 41.9087 29.3799 41.894L29.3872 43C29.2798 43.0342 29.1382 43.0659 28.9624 43.0952C28.7915 43.1294 28.584 43.1465 28.3398 43.1465C28.0078 43.1465 27.7026 43.0806 27.4243 42.9487C27.146 42.8169 26.9238 42.5972 26.7578 42.2896C26.5967 41.9771 26.5161 41.5571 26.5161 41.0298V33.1489ZM32.2949 31.75V43H30.9399V31.75H32.2949ZM31.9727 38.7373L31.4087 38.7153C31.4136 38.1733 31.4941 37.6729 31.6504 37.2139C31.8066 36.75 32.0264 36.3472 32.3096 36.0054C32.5928 35.6636 32.9297 35.3999 33.3203 35.2144C33.7158 35.0239 34.1528 34.9287 34.6313 34.9287C35.022 34.9287 35.3735 34.9824 35.686 35.0898C35.9985 35.1924 36.2646 35.3584 36.4844 35.5879C36.709 35.8174 36.8799 36.1152 36.9971 36.4814C37.1143 36.8428 37.1729 37.2847 37.1729 37.8071V43H35.8105V37.7925C35.8105 37.3774 35.7495 37.0454 35.6274 36.7964C35.5054 36.5425 35.3271 36.3594 35.0928 36.2471C34.8584 36.1299 34.5703 36.0713 34.2285 36.0713C33.8916 36.0713 33.584 36.1421 33.3057 36.2837C33.0322 36.4253 32.7954 36.6206 32.5952 36.8696C32.3999 37.1187 32.2461 37.4043 32.1338 37.7266C32.0264 38.0439 31.9727 38.3809 31.9727 38.7373ZM43.8745 41.645V37.5654C43.8745 37.2529 43.811 36.9819 43.6841 36.7524C43.562 36.5181 43.3765 36.3374 43.1274 36.2104C42.8784 36.0835 42.5708 36.02 42.2046 36.02C41.8628 36.02 41.5625 36.0786 41.3037 36.1958C41.0498 36.313 40.8496 36.4668 40.7031 36.6572C40.5615 36.8477 40.4907 37.0527 40.4907 37.2725H39.1357C39.1357 36.9893 39.209 36.7085 39.3555 36.4302C39.502 36.1519 39.7119 35.9004 39.9854 35.6758C40.2637 35.4463 40.5957 35.2656 40.9814 35.1338C41.3721 34.9971 41.8066 34.9287 42.2852 34.9287C42.8613 34.9287 43.3691 35.0264 43.8086 35.2217C44.2529 35.417 44.5996 35.7124 44.8486 36.1079C45.1025 36.4985 45.2295 36.9893 45.2295 37.5801V41.2715C45.2295 41.5352 45.2515 41.8159 45.2954 42.1138C45.3442 42.4116 45.415 42.668 45.5078 42.8828V43H44.0942C44.0259 42.8438 43.9722 42.6362 43.9331 42.3774C43.894 42.1138 43.8745 41.8696 43.8745 41.645ZM44.1089 38.1953L44.1235 39.1475H42.7539C42.3682 39.1475 42.0239 39.1792 41.7212 39.2427C41.4185 39.3013 41.1646 39.3916 40.9595 39.5137C40.7544 39.6357 40.5981 39.7896 40.4907 39.9751C40.3833 40.1558 40.3296 40.3682 40.3296 40.6123C40.3296 40.8613 40.3857 41.0884 40.498 41.2935C40.6104 41.4985 40.7788 41.6621 41.0034 41.7842C41.2329 41.9014 41.5137 41.96 41.8457 41.96C42.2607 41.96 42.627 41.8721 42.9443 41.6963C43.2617 41.5205 43.5132 41.3057 43.6987 41.0518C43.8892 40.7979 43.9917 40.5513 44.0063 40.312L44.585 40.9639C44.5508 41.1689 44.458 41.396 44.3066 41.645C44.1553 41.894 43.9526 42.1333 43.6987 42.3628C43.4497 42.5874 43.1519 42.7754 42.8052 42.9268C42.4634 43.0732 42.0776 43.1465 41.6479 43.1465C41.1108 43.1465 40.6396 43.0415 40.2344 42.8315C39.834 42.6216 39.5215 42.3408 39.2969 41.9893C39.0771 41.6328 38.9673 41.2349 38.9673 40.7954C38.9673 40.3706 39.0503 39.9971 39.2163 39.6748C39.3823 39.3477 39.6216 39.0767 39.9341 38.8618C40.2466 38.6421 40.6226 38.4761 41.062 38.3638C41.5015 38.2515 41.9922 38.1953 42.5342 38.1953H44.1089ZM48.7158 36.7671V43H47.3608V35.0752H48.6426L48.7158 36.7671ZM48.3936 38.7373L47.8296 38.7153C47.8345 38.1733 47.915 37.6729 48.0713 37.2139C48.2275 36.75 48.4473 36.3472 48.7305 36.0054C49.0137 35.6636 49.3506 35.3999 49.7412 35.2144C50.1367 35.0239 50.5737 34.9287 51.0522 34.9287C51.4429 34.9287 51.7944 34.9824 52.1069 35.0898C52.4194 35.1924 52.6855 35.3584 52.9053 35.5879C53.1299 35.8174 53.3008 36.1152 53.418 36.4814C53.5352 36.8428 53.5938 37.2847 53.5938 37.8071V43H52.2314V37.7925C52.2314 37.3774 52.1704 37.0454 52.0483 36.7964C51.9263 36.5425 51.748 36.3594 51.5137 36.2471C51.2793 36.1299 50.9912 36.0713 50.6494 36.0713C50.3125 36.0713 50.0049 36.1421 49.7266 36.2837C49.4531 36.4253 49.2163 36.6206 49.0161 36.8696C48.8208 37.1187 48.667 37.4043 48.5547 37.7266C48.4473 38.0439 48.3936 38.3809 48.3936 38.7373ZM57.0142 31.75V43H55.6519V31.75H57.0142ZM61.8555 35.0752L58.3984 38.7739L56.4648 40.7808L56.355 39.3379L57.7393 37.6826L60.2002 35.0752H61.8555ZM60.6177 43L57.7905 39.2207L58.4937 38.0122L62.2144 43H60.6177ZM69.2017 42.1797L71.4062 35.0752H72.8564L69.6777 44.2231C69.6045 44.4185 69.5068 44.6284 69.3848 44.853C69.2676 45.0825 69.1162 45.2998 68.9307 45.5049C68.7451 45.71 68.5205 45.876 68.2568 46.0029C67.998 46.1348 67.688 46.2007 67.3267 46.2007C67.2192 46.2007 67.0825 46.186 66.9165 46.1567C66.7505 46.1274 66.6333 46.103 66.5649 46.0835L66.5576 44.9849C66.5967 44.9897 66.6577 44.9946 66.7407 44.9995C66.8286 45.0093 66.8896 45.0142 66.9238 45.0142C67.2314 45.0142 67.4927 44.9727 67.7075 44.8896C67.9224 44.8115 68.103 44.6772 68.2495 44.4868C68.4009 44.3013 68.5303 44.0449 68.6377 43.7178L69.2017 42.1797ZM67.583 35.0752L69.6411 41.2275L69.9927 42.6558L69.0186 43.1538L66.1035 35.0752H67.583ZM73.6035 39.1255V38.957C73.6035 38.3857 73.6865 37.856 73.8525 37.3677C74.0186 36.8745 74.2578 36.4473 74.5703 36.0859C74.8828 35.7197 75.2612 35.4365 75.7056 35.2363C76.1499 35.0312 76.6479 34.9287 77.1997 34.9287C77.7563 34.9287 78.2568 35.0312 78.7012 35.2363C79.1504 35.4365 79.5312 35.7197 79.8438 36.0859C80.1611 36.4473 80.4028 36.8745 80.5688 37.3677C80.7349 37.856 80.8179 38.3857 80.8179 38.957V39.1255C80.8179 39.6968 80.7349 40.2266 80.5688 40.7148C80.4028 41.2031 80.1611 41.6304 79.8438 41.9966C79.5312 42.3579 79.1528 42.6411 78.7085 42.8462C78.269 43.0464 77.771 43.1465 77.2144 43.1465C76.6577 43.1465 76.1572 43.0464 75.7129 42.8462C75.2686 42.6411 74.8877 42.3579 74.5703 41.9966C74.2578 41.6304 74.0186 41.2031 73.8525 40.7148C73.6865 40.2266 73.6035 39.6968 73.6035 39.1255ZM74.9585 38.957V39.1255C74.9585 39.521 75.0049 39.8945 75.0977 40.2461C75.1904 40.5928 75.3296 40.9004 75.5151 41.1689C75.7056 41.4375 75.9424 41.6499 76.2256 41.8062C76.5088 41.9575 76.8384 42.0332 77.2144 42.0332C77.5854 42.0332 77.9102 41.9575 78.1885 41.8062C78.4717 41.6499 78.7061 41.4375 78.8916 41.1689C79.0771 40.9004 79.2163 40.5928 79.3091 40.2461C79.4067 39.8945 79.4556 39.521 79.4556 39.1255V38.957C79.4556 38.5664 79.4067 38.1978 79.3091 37.8511C79.2163 37.4995 79.0747 37.1895 78.8843 36.9209C78.6987 36.6475 78.4644 36.4326 78.1812 36.2764C77.9028 36.1201 77.5757 36.042 77.1997 36.042C76.8286 36.042 76.5015 36.1201 76.2183 36.2764C75.9399 36.4326 75.7056 36.6475 75.5151 36.9209C75.3296 37.1895 75.1904 37.4995 75.0977 37.8511C75.0049 38.1978 74.9585 38.5664 74.9585 38.957ZM87.3657 41.1689V35.0752H88.728V43H87.4316L87.3657 41.1689ZM87.6221 39.499L88.186 39.4844C88.186 40.0117 88.1299 40.5 88.0176 40.9492C87.9102 41.3936 87.7344 41.7793 87.4902 42.1064C87.2461 42.4336 86.9263 42.6899 86.5308 42.8755C86.1353 43.0562 85.6543 43.1465 85.0879 43.1465C84.7021 43.1465 84.3481 43.0903 84.0259 42.978C83.7085 42.8657 83.4351 42.6924 83.2056 42.458C82.9761 42.2236 82.7979 41.9185 82.6709 41.5425C82.5488 41.1665 82.4878 40.7148 82.4878 40.1875V35.0752H83.8428V40.2021C83.8428 40.5586 83.8818 40.854 83.96 41.0884C84.043 41.3179 84.1528 41.501 84.2896 41.6377C84.4312 41.7695 84.5874 41.8623 84.7583 41.916C84.9341 41.9697 85.1147 41.9966 85.3003 41.9966C85.8765 41.9966 86.333 41.8867 86.6699 41.667C87.0068 41.4424 87.2485 41.1421 87.395 40.7661C87.5464 40.3853 87.6221 39.9629 87.6221 39.499ZM96.5356 43H95.1807V34.2402C95.1807 33.6689 95.2832 33.188 95.4883 32.7974C95.6982 32.4019 95.9985 32.104 96.3892 31.9038C96.7798 31.6987 97.2437 31.5962 97.7808 31.5962C97.937 31.5962 98.0933 31.606 98.2495 31.6255C98.4106 31.645 98.5669 31.6743 98.7183 31.7134L98.645 32.8193C98.5425 32.7949 98.4253 32.7778 98.2935 32.7681C98.1665 32.7583 98.0396 32.7534 97.9126 32.7534C97.6245 32.7534 97.3755 32.812 97.1655 32.9292C96.9604 33.0415 96.8042 33.2075 96.6968 33.4272C96.5894 33.647 96.5356 33.918 96.5356 34.2402V43ZM98.2202 35.0752V36.1152H93.9282V35.0752H98.2202ZM99.3701 39.1255V38.957C99.3701 38.3857 99.4531 37.856 99.6191 37.3677C99.7852 36.8745 100.024 36.4473 100.337 36.0859C100.649 35.7197 101.028 35.4365 101.472 35.2363C101.917 35.0312 102.415 34.9287 102.966 34.9287C103.523 34.9287 104.023 35.0312 104.468 35.2363C104.917 35.4365 105.298 35.7197 105.61 36.0859C105.928 36.4473 106.169 36.8745 106.335 37.3677C106.501 37.856 106.584 38.3857 106.584 38.957V39.1255C106.584 39.6968 106.501 40.2266 106.335 40.7148C106.169 41.2031 105.928 41.6304 105.61 41.9966C105.298 42.3579 104.919 42.6411 104.475 42.8462C104.036 43.0464 103.538 43.1465 102.981 43.1465C102.424 43.1465 101.924 43.0464 101.479 42.8462C101.035 42.6411 100.654 42.3579 100.337 41.9966C100.024 41.6304 99.7852 41.2031 99.6191 40.7148C99.4531 40.2266 99.3701 39.6968 99.3701 39.1255ZM100.725 38.957V39.1255C100.725 39.521 100.771 39.8945 100.864 40.2461C100.957 40.5928 101.096 40.9004 101.282 41.1689C101.472 41.4375 101.709 41.6499 101.992 41.8062C102.275 41.9575 102.605 42.0332 102.981 42.0332C103.352 42.0332 103.677 41.9575 103.955 41.8062C104.238 41.6499 104.473 41.4375 104.658 41.1689C104.844 40.9004 104.983 40.5928 105.076 40.2461C105.173 39.8945 105.222 39.521 105.222 39.1255V38.957C105.222 38.5664 105.173 38.1978 105.076 37.8511C104.983 37.4995 104.841 37.1895 104.651 36.9209C104.465 36.6475 104.231 36.4326 103.948 36.2764C103.669 36.1201 103.342 36.042 102.966 36.042C102.595 36.042 102.268 36.1201 101.985 36.2764C101.707 36.4326 101.472 36.6475 101.282 36.9209C101.096 37.1895 100.957 37.4995 100.864 37.8511C100.771 38.1978 100.725 38.5664 100.725 38.957ZM109.639 36.3203V43H108.284V35.0752H109.602L109.639 36.3203ZM112.114 35.0312L112.107 36.291C111.995 36.2666 111.887 36.252 111.785 36.2471C111.687 36.2373 111.575 36.2324 111.448 36.2324C111.135 36.2324 110.859 36.2812 110.62 36.3789C110.381 36.4766 110.178 36.6133 110.012 36.7891C109.846 36.9648 109.714 37.1748 109.617 37.4189C109.524 37.6582 109.463 37.9219 109.434 38.21L109.053 38.4297C109.053 37.9512 109.099 37.502 109.192 37.082C109.29 36.6621 109.438 36.291 109.639 35.9688C109.839 35.6416 110.093 35.3877 110.4 35.207C110.713 35.0215 111.084 34.9287 111.514 34.9287C111.611 34.9287 111.724 34.9409 111.851 34.9653C111.978 34.9849 112.065 35.0068 112.114 35.0312ZM119.314 42.1797L121.519 35.0752H122.969L119.79 44.2231C119.717 44.4185 119.619 44.6284 119.497 44.853C119.38 45.0825 119.229 45.2998 119.043 45.5049C118.857 45.71 118.633 45.876 118.369 46.0029C118.11 46.1348 117.8 46.2007 117.439 46.2007C117.332 46.2007 117.195 46.186 117.029 46.1567C116.863 46.1274 116.746 46.103 116.677 46.0835L116.67 44.9849C116.709 44.9897 116.77 44.9946 116.853 44.9995C116.941 45.0093 117.002 45.0142 117.036 45.0142C117.344 45.0142 117.605 44.9727 117.82 44.8896C118.035 44.8115 118.215 44.6772 118.362 44.4868C118.513 44.3013 118.643 44.0449 118.75 43.7178L119.314 42.1797ZM117.695 35.0752L119.753 41.2275L120.105 42.6558L119.131 43.1538L116.216 35.0752H117.695ZM123.716 39.1255V38.957C123.716 38.3857 123.799 37.856 123.965 37.3677C124.131 36.8745 124.37 36.4473 124.683 36.0859C124.995 35.7197 125.374 35.4365 125.818 35.2363C126.262 35.0312 126.76 34.9287 127.312 34.9287C127.869 34.9287 128.369 35.0312 128.813 35.2363C129.263 35.4365 129.644 35.7197 129.956 36.0859C130.273 36.4473 130.515 36.8745 130.681 37.3677C130.847 37.856 130.93 38.3857 130.93 38.957V39.1255C130.93 39.6968 130.847 40.2266 130.681 40.7148C130.515 41.2031 130.273 41.6304 129.956 41.9966C129.644 42.3579 129.265 42.6411 128.821 42.8462C128.381 43.0464 127.883 43.1465 127.327 43.1465C126.77 43.1465 126.27 43.0464 125.825 42.8462C125.381 42.6411 125 42.3579 124.683 41.9966C124.37 41.6304 124.131 41.2031 123.965 40.7148C123.799 40.2266 123.716 39.6968 123.716 39.1255ZM125.071 38.957V39.1255C125.071 39.521 125.117 39.8945 125.21 40.2461C125.303 40.5928 125.442 40.9004 125.627 41.1689C125.818 41.4375 126.055 41.6499 126.338 41.8062C126.621 41.9575 126.951 42.0332 127.327 42.0332C127.698 42.0332 128.022 41.9575 128.301 41.8062C128.584 41.6499 128.818 41.4375 129.004 41.1689C129.189 40.9004 129.329 40.5928 129.421 40.2461C129.519 39.8945 129.568 39.521 129.568 39.1255V38.957C129.568 38.5664 129.519 38.1978 129.421 37.8511C129.329 37.4995 129.187 37.1895 128.997 36.9209C128.811 36.6475 128.577 36.4326 128.293 36.2764C128.015 36.1201 127.688 36.042 127.312 36.042C126.941 36.042 126.614 36.1201 126.331 36.2764C126.052 36.4326 125.818 36.6475 125.627 36.9209C125.442 37.1895 125.303 37.4995 125.21 37.8511C125.117 38.1978 125.071 38.5664 125.071 38.957ZM137.478 41.1689V35.0752H138.84V43H137.544L137.478 41.1689ZM137.734 39.499L138.298 39.4844C138.298 40.0117 138.242 40.5 138.13 40.9492C138.022 41.3936 137.847 41.7793 137.603 42.1064C137.358 42.4336 137.039 42.6899 136.643 42.8755C136.248 43.0562 135.767 43.1465 135.2 43.1465C134.814 43.1465 134.46 43.0903 134.138 42.978C133.821 42.8657 133.547 42.6924 133.318 42.458C133.088 42.2236 132.91 41.9185 132.783 41.5425C132.661 41.1665 132.6 40.7148 132.6 40.1875V35.0752H133.955V40.2021C133.955 40.5586 133.994 40.854 134.072 41.0884C134.155 41.3179 134.265 41.501 134.402 41.6377C134.543 41.7695 134.7 41.8623 134.871 41.916C135.046 41.9697 135.227 41.9966 135.413 41.9966C135.989 41.9966 136.445 41.8867 136.782 41.667C137.119 41.4424 137.361 41.1421 137.507 40.7661C137.659 40.3853 137.734 39.9629 137.734 39.499ZM142.261 36.3203V43H140.906V35.0752H142.224L142.261 36.3203ZM144.736 35.0312L144.729 36.291C144.617 36.2666 144.509 36.252 144.407 36.2471C144.309 36.2373 144.197 36.2324 144.07 36.2324C143.757 36.2324 143.481 36.2812 143.242 36.3789C143.003 36.4766 142.8 36.6133 142.634 36.7891C142.468 36.9648 142.336 37.1748 142.239 37.4189C142.146 37.6582 142.085 37.9219 142.056 38.21L141.675 38.4297C141.675 37.9512 141.721 37.502 141.814 37.082C141.912 36.6621 142.061 36.291 142.261 35.9688C142.461 35.6416 142.715 35.3877 143.022 35.207C143.335 35.0215 143.706 34.9287 144.136 34.9287C144.233 34.9287 144.346 34.9409 144.473 34.9653C144.6 34.9849 144.688 35.0068 144.736 35.0312ZM154.382 41.645V37.5654C154.382 37.2529 154.319 36.9819 154.192 36.7524C154.07 36.5181 153.884 36.3374 153.635 36.2104C153.386 36.0835 153.079 36.02 152.712 36.02C152.371 36.02 152.07 36.0786 151.812 36.1958C151.558 36.313 151.357 36.4668 151.211 36.6572C151.069 36.8477 150.999 37.0527 150.999 37.2725H149.644C149.644 36.9893 149.717 36.7085 149.863 36.4302C150.01 36.1519 150.22 35.9004 150.493 35.6758C150.771 35.4463 151.104 35.2656 151.489 35.1338C151.88 34.9971 152.314 34.9287 152.793 34.9287C153.369 34.9287 153.877 35.0264 154.316 35.2217C154.761 35.417 155.107 35.7124 155.356 36.1079C155.61 36.4985 155.737 36.9893 155.737 37.5801V41.2715C155.737 41.5352 155.759 41.8159 155.803 42.1138C155.852 42.4116 155.923 42.668 156.016 42.8828V43H154.602C154.534 42.8438 154.48 42.6362 154.441 42.3774C154.402 42.1138 154.382 41.8696 154.382 41.645ZM154.617 38.1953L154.631 39.1475H153.262C152.876 39.1475 152.532 39.1792 152.229 39.2427C151.926 39.3013 151.672 39.3916 151.467 39.5137C151.262 39.6357 151.106 39.7896 150.999 39.9751C150.891 40.1558 150.837 40.3682 150.837 40.6123C150.837 40.8613 150.894 41.0884 151.006 41.2935C151.118 41.4985 151.287 41.6621 151.511 41.7842C151.741 41.9014 152.021 41.96 152.354 41.96C152.769 41.96 153.135 41.8721 153.452 41.6963C153.77 41.5205 154.021 41.3057 154.207 41.0518C154.397 40.7979 154.5 40.5513 154.514 40.312L155.093 40.9639C155.059 41.1689 154.966 41.396 154.814 41.645C154.663 41.894 154.46 42.1333 154.207 42.3628C153.958 42.5874 153.66 42.7754 153.313 42.9268C152.971 43.0732 152.585 43.1465 152.156 43.1465C151.619 43.1465 151.147 43.0415 150.742 42.8315C150.342 42.6216 150.029 42.3408 149.805 41.9893C149.585 41.6328 149.475 41.2349 149.475 40.7954C149.475 40.3706 149.558 39.9971 149.724 39.6748C149.89 39.3477 150.129 39.0767 150.442 38.8618C150.754 38.6421 151.13 38.4761 151.57 38.3638C152.009 38.2515 152.5 38.1953 153.042 38.1953H154.617ZM162.864 41.4619V31.75H164.226V43H162.981L162.864 41.4619ZM157.532 39.1255V38.9717C157.532 38.3662 157.605 37.8169 157.751 37.3237C157.903 36.8257 158.115 36.3984 158.389 36.042C158.667 35.6855 158.997 35.4121 159.377 35.2217C159.763 35.0264 160.193 34.9287 160.667 34.9287C161.165 34.9287 161.599 35.0166 161.97 35.1924C162.346 35.3633 162.664 35.6147 162.922 35.9468C163.186 36.2739 163.394 36.6694 163.545 37.1333C163.696 37.5972 163.801 38.1221 163.86 38.708V39.3818C163.806 39.9629 163.701 40.4854 163.545 40.9492C163.394 41.4131 163.186 41.8086 162.922 42.1357C162.664 42.4629 162.346 42.7144 161.97 42.8901C161.594 43.061 161.155 43.1465 160.652 43.1465C160.188 43.1465 159.763 43.0464 159.377 42.8462C158.997 42.646 158.667 42.3652 158.389 42.0039C158.115 41.6426 157.903 41.2178 157.751 40.7295C157.605 40.2363 157.532 39.7017 157.532 39.1255ZM158.894 38.9717V39.1255C158.894 39.521 158.933 39.8921 159.011 40.2388C159.094 40.5854 159.221 40.8906 159.392 41.1543C159.563 41.418 159.78 41.6255 160.044 41.7769C160.308 41.9233 160.623 41.9966 160.989 41.9966C161.438 41.9966 161.807 41.9014 162.095 41.7109C162.388 41.5205 162.622 41.269 162.798 40.9565C162.974 40.644 163.11 40.3047 163.208 39.9385V38.1733C163.149 37.9048 163.064 37.646 162.952 37.397C162.844 37.1431 162.703 36.9185 162.527 36.7231C162.356 36.5229 162.144 36.3643 161.89 36.2471C161.641 36.1299 161.345 36.0713 161.003 36.0713C160.632 36.0713 160.312 36.1494 160.044 36.3057C159.78 36.457 159.563 36.667 159.392 36.9355C159.221 37.1992 159.094 37.5068 159.011 37.8584C158.933 38.2051 158.894 38.5762 158.894 38.9717ZM168.745 41.7769L170.913 35.0752H172.297L169.448 43H168.54L168.745 41.7769ZM166.936 35.0752L169.17 41.8135L169.324 43H168.416L165.544 35.0752H166.936ZM175.073 35.0752V43H173.711V35.0752H175.073ZM173.608 32.9731C173.608 32.7534 173.674 32.5679 173.806 32.4165C173.943 32.2651 174.143 32.1895 174.407 32.1895C174.666 32.1895 174.863 32.2651 175 32.4165C175.142 32.5679 175.212 32.7534 175.212 32.9731C175.212 33.1831 175.142 33.3638 175 33.5151C174.863 33.6616 174.666 33.7349 174.407 33.7349C174.143 33.7349 173.943 33.6616 173.806 33.5151C173.674 33.3638 173.608 33.1831 173.608 32.9731ZM180.42 42.0332C180.742 42.0332 181.04 41.9673 181.313 41.8354C181.587 41.7036 181.812 41.5229 181.987 41.2935C182.163 41.0591 182.263 40.793 182.288 40.4951H183.577C183.552 40.9639 183.394 41.4009 183.101 41.8062C182.812 42.2065 182.434 42.5312 181.965 42.7803C181.497 43.0244 180.981 43.1465 180.42 43.1465C179.824 43.1465 179.304 43.0415 178.86 42.8315C178.42 42.6216 178.054 42.3335 177.761 41.9673C177.473 41.6011 177.256 41.1812 177.109 40.7075C176.968 40.229 176.897 39.7236 176.897 39.1914V38.8838C176.897 38.3516 176.968 37.8486 177.109 37.375C177.256 36.8965 177.473 36.4741 177.761 36.1079C178.054 35.7417 178.42 35.4536 178.86 35.2437C179.304 35.0337 179.824 34.9287 180.42 34.9287C181.04 34.9287 181.582 35.0557 182.046 35.3096C182.51 35.5586 182.874 35.9004 183.137 36.335C183.406 36.7646 183.552 37.2529 183.577 37.7998H182.288C182.263 37.4727 182.17 37.1772 182.009 36.9136C181.853 36.6499 181.638 36.4399 181.365 36.2837C181.096 36.1226 180.781 36.042 180.42 36.042C180.005 36.042 179.656 36.125 179.373 36.291C179.094 36.4521 178.872 36.6719 178.706 36.9502C178.545 37.2236 178.428 37.5288 178.354 37.8657C178.286 38.1978 178.252 38.5371 178.252 38.8838V39.1914C178.252 39.5381 178.286 39.8799 178.354 40.2168C178.423 40.5537 178.538 40.8589 178.699 41.1323C178.865 41.4058 179.087 41.6255 179.365 41.7915C179.648 41.9526 180 42.0332 180.42 42.0332ZM188.389 43.1465C187.837 43.1465 187.336 43.0537 186.887 42.8682C186.443 42.6777 186.06 42.4116 185.737 42.0698C185.42 41.728 185.176 41.3228 185.005 40.854C184.834 40.3853 184.749 39.8726 184.749 39.3159V39.0083C184.749 38.3638 184.844 37.79 185.034 37.2871C185.225 36.7793 185.483 36.3496 185.811 35.998C186.138 35.6465 186.509 35.3804 186.924 35.1997C187.339 35.019 187.769 34.9287 188.213 34.9287C188.779 34.9287 189.268 35.0264 189.678 35.2217C190.093 35.417 190.432 35.6904 190.696 36.042C190.959 36.3887 191.155 36.7988 191.282 37.2725C191.409 37.7412 191.472 38.2539 191.472 38.8105V39.4185H185.554V38.3125H190.117V38.21C190.098 37.8584 190.024 37.5166 189.897 37.1846C189.775 36.8525 189.58 36.5791 189.312 36.3643C189.043 36.1494 188.677 36.042 188.213 36.042C187.905 36.042 187.622 36.1079 187.363 36.2397C187.104 36.3667 186.882 36.5571 186.697 36.811C186.511 37.0649 186.367 37.375 186.265 37.7412C186.162 38.1074 186.111 38.5298 186.111 39.0083V39.3159C186.111 39.6919 186.162 40.0459 186.265 40.3779C186.372 40.7051 186.526 40.9932 186.726 41.2422C186.931 41.4912 187.178 41.6865 187.466 41.8281C187.759 41.9697 188.091 42.0405 188.462 42.0405C188.94 42.0405 189.346 41.9429 189.678 41.7476C190.01 41.5522 190.3 41.291 190.549 40.9639L191.37 41.6157C191.199 41.8745 190.981 42.1211 190.718 42.3555C190.454 42.5898 190.129 42.7803 189.744 42.9268C189.363 43.0732 188.911 43.1465 188.389 43.1465ZM194.666 32.3359L194.57 39.9897H193.347L193.245 32.3359H194.666ZM193.201 42.3188C193.201 42.0991 193.267 41.9136 193.398 41.7622C193.535 41.6108 193.735 41.5352 193.999 41.5352C194.258 41.5352 194.456 41.6108 194.592 41.7622C194.734 41.9136 194.805 42.0991 194.805 42.3188C194.805 42.5288 194.734 42.7095 194.592 42.8608C194.456 43.0122 194.258 43.0879 193.999 43.0879C193.735 43.0879 193.535 43.0122 193.398 42.8608C193.267 42.7095 193.201 42.5288 193.201 42.3188Z" fill="#444444"/>
<defs>
<filter id="filter0_d_1083_1204" x="0" y="0" width="221" height="84" filterUnits="userSpaceOnUse" color-interpolation-filters="sRGB">
<feFlood flood-opacity="0" result="BackgroundImageFix"/>
<feColorMatrix in="SourceAlpha" type="matrix" values="0 0 0 0 0 0 0 0 0 0 0 0 0 0 0 0 0 0 127 0" result="hardAlpha"/>
<feOffset dy="4"/>
<feGaussianBlur stdDeviation="3.5"/>
<feComposite in2="hardAlpha" operator="out"/>
<feColorMatrix type="matrix" values="0 0 0 0 0 0 0 0 0 0 0 0 0 0 0 0 0 0 0.07 0"/>
<feBlend mode="normal" in2="BackgroundImageFix" result="effect1_dropShadow_1083_1204"/>
<feBlend mode="normal" in="SourceGraphic" in2="effect1_dropShadow_1083_1204" result="shape"/>
</filter>
</defs>
</svg>
