<svg width="111" height="84" viewBox="0 0 111 84" fill="none" xmlns="http://www.w3.org/2000/svg">
<g filter="url(#filter0_d_275_613)">
<rect x="7" y="3" width="97" height="70" rx="5" fill="#F5FBFF"/>
<rect x="7.5" y="3.5" width="96" height="69" rx="4.5" stroke="#E3E3E3"/>
</g>
<path d="M28.0342 32.3359V43H26.6206V32.3359H28.0342ZM31.7695 31.75V32.6875C31.7695 32.9805 31.7183 33.2905 31.6157 33.6177C31.5181 33.9399 31.374 34.2524 31.1836 34.5552C30.9932 34.853 30.7637 35.1143 30.4951 35.3389L29.7188 34.8042C29.9482 34.4819 30.1216 34.1523 30.2388 33.8154C30.3608 33.4736 30.4219 33.105 30.4219 32.7095V31.75H31.7695ZM34.604 36.6499V43H33.2417V35.0752H34.5308L34.604 36.6499ZM34.3257 38.7373L33.6958 38.7153C33.7007 38.1733 33.7715 37.6729 33.9082 37.2139C34.0449 36.75 34.2476 36.3472 34.5161 36.0054C34.7847 35.6636 35.1191 35.3999 35.5195 35.2144C35.9199 35.0239 36.3838 34.9287 36.9111 34.9287C37.2822 34.9287 37.624 34.9824 37.9365 35.0898C38.249 35.1924 38.52 35.356 38.7495 35.5806C38.979 35.8052 39.1572 36.0933 39.2842 36.4448C39.4111 36.7964 39.4746 37.2212 39.4746 37.7192V43H38.1196V37.7852C38.1196 37.3701 38.0488 37.0381 37.9072 36.7891C37.7705 36.54 37.5752 36.3594 37.3213 36.2471C37.0674 36.1299 36.7695 36.0713 36.4277 36.0713C36.0273 36.0713 35.6929 36.1421 35.4243 36.2837C35.1558 36.4253 34.9409 36.6206 34.7798 36.8696C34.6187 37.1187 34.5015 37.4043 34.4282 37.7266C34.3599 38.0439 34.3257 38.3809 34.3257 38.7373ZM39.46 37.9902L38.5518 38.2686C38.5566 37.834 38.6274 37.4165 38.7642 37.0161C38.9058 36.6157 39.1084 36.2593 39.3721 35.9468C39.6406 35.6343 39.9702 35.3877 40.3608 35.207C40.7515 35.0215 41.1982 34.9287 41.7012 34.9287C42.126 34.9287 42.502 34.9849 42.8291 35.0972C43.1611 35.2095 43.4395 35.3828 43.6641 35.6172C43.8936 35.8467 44.0669 36.1421 44.1841 36.5034C44.3013 36.8647 44.3599 37.2944 44.3599 37.7925V43H42.9976V37.7778C42.9976 37.3335 42.9268 36.9893 42.7852 36.7451C42.6484 36.4961 42.4531 36.3228 42.1992 36.2251C41.9502 36.1226 41.6523 36.0713 41.3057 36.0713C41.0078 36.0713 40.7441 36.1226 40.5146 36.2251C40.2852 36.3276 40.0923 36.4692 39.936 36.6499C39.7798 36.8257 39.6602 37.0283 39.5771 37.2578C39.499 37.4873 39.46 37.7314 39.46 37.9902ZM51.4863 36.3203V43H50.1313V35.0752H51.4497L51.4863 36.3203ZM53.9619 35.0312L53.9546 36.291C53.8423 36.2666 53.7349 36.252 53.6323 36.2471C53.5347 36.2373 53.4224 36.2324 53.2954 36.2324C52.9829 36.2324 52.707 36.2812 52.4678 36.3789C52.2285 36.4766 52.0259 36.6133 51.8599 36.7891C51.6938 36.9648 51.562 37.1748 51.4644 37.4189C51.3716 37.6582 51.3105 37.9219 51.2812 38.21L50.9004 38.4297C50.9004 37.9512 50.9468 37.502 51.0396 37.082C51.1372 36.6621 51.2861 36.291 51.4863 35.9688C51.6865 35.6416 51.9404 35.3877 52.248 35.207C52.5605 35.0215 52.9316 34.9287 53.3613 34.9287C53.459 34.9287 53.5713 34.9409 53.6982 34.9653C53.8252 34.9849 53.9131 35.0068 53.9619 35.0312ZM58.3564 43.1465C57.8047 43.1465 57.3042 43.0537 56.855 42.8682C56.4106 42.6777 56.0273 42.4116 55.7051 42.0698C55.3877 41.728 55.1436 41.3228 54.9727 40.854C54.8018 40.3853 54.7163 39.8726 54.7163 39.3159V39.0083C54.7163 38.3638 54.8115 37.79 55.002 37.2871C55.1924 36.7793 55.4512 36.3496 55.7783 35.998C56.1055 35.6465 56.4766 35.3804 56.8916 35.1997C57.3066 35.019 57.7363 34.9287 58.1807 34.9287C58.7471 34.9287 59.2354 35.0264 59.6455 35.2217C60.0605 35.417 60.3999 35.6904 60.6636 36.042C60.9272 36.3887 61.1226 36.7988 61.2495 37.2725C61.3765 37.7412 61.4399 38.2539 61.4399 38.8105V39.4185H55.522V38.3125H60.085V38.21C60.0654 37.8584 59.9922 37.5166 59.8652 37.1846C59.7432 36.8525 59.5479 36.5791 59.2793 36.3643C59.0107 36.1494 58.6445 36.042 58.1807 36.042C57.873 36.042 57.5898 36.1079 57.3311 36.2397C57.0723 36.3667 56.8501 36.5571 56.6646 36.811C56.479 37.0649 56.335 37.375 56.2324 37.7412C56.1299 38.1074 56.0786 38.5298 56.0786 39.0083V39.3159C56.0786 39.6919 56.1299 40.0459 56.2324 40.3779C56.3398 40.7051 56.4937 40.9932 56.6938 41.2422C56.8989 41.4912 57.1455 41.6865 57.4336 41.8281C57.7266 41.9697 58.0586 42.0405 58.4297 42.0405C58.9082 42.0405 59.3135 41.9429 59.6455 41.7476C59.9775 41.5522 60.2681 41.291 60.5171 40.9639L61.3374 41.6157C61.1665 41.8745 60.9492 42.1211 60.6855 42.3555C60.4219 42.5898 60.0972 42.7803 59.7114 42.9268C59.3306 43.0732 58.8789 43.1465 58.3564 43.1465ZM67.6948 41.645V37.5654C67.6948 37.2529 67.6313 36.9819 67.5044 36.7524C67.3823 36.5181 67.1968 36.3374 66.9478 36.2104C66.6987 36.0835 66.3911 36.02 66.0249 36.02C65.6831 36.02 65.3828 36.0786 65.124 36.1958C64.8701 36.313 64.6699 36.4668 64.5234 36.6572C64.3818 36.8477 64.311 37.0527 64.311 37.2725H62.9561C62.9561 36.9893 63.0293 36.7085 63.1758 36.4302C63.3223 36.1519 63.5322 35.9004 63.8057 35.6758C64.084 35.4463 64.416 35.2656 64.8018 35.1338C65.1924 34.9971 65.627 34.9287 66.1055 34.9287C66.6816 34.9287 67.1895 35.0264 67.6289 35.2217C68.0732 35.417 68.4199 35.7124 68.6689 36.1079C68.9229 36.4985 69.0498 36.9893 69.0498 37.5801V41.2715C69.0498 41.5352 69.0718 41.8159 69.1157 42.1138C69.1646 42.4116 69.2354 42.668 69.3281 42.8828V43H67.9146C67.8462 42.8438 67.7925 42.6362 67.7534 42.3774C67.7144 42.1138 67.6948 41.8696 67.6948 41.645ZM67.9292 38.1953L67.9438 39.1475H66.5742C66.1885 39.1475 65.8442 39.1792 65.5415 39.2427C65.2388 39.3013 64.9849 39.3916 64.7798 39.5137C64.5747 39.6357 64.4185 39.7896 64.311 39.9751C64.2036 40.1558 64.1499 40.3682 64.1499 40.6123C64.1499 40.8613 64.2061 41.0884 64.3184 41.2935C64.4307 41.4985 64.5991 41.6621 64.8237 41.7842C65.0532 41.9014 65.334 41.96 65.666 41.96C66.0811 41.96 66.4473 41.8721 66.7646 41.6963C67.082 41.5205 67.3335 41.3057 67.519 41.0518C67.7095 40.7979 67.812 40.5513 67.8267 40.312L68.4053 40.9639C68.3711 41.1689 68.2783 41.396 68.127 41.645C67.9756 41.894 67.7729 42.1333 67.519 42.3628C67.27 42.5874 66.9722 42.7754 66.6255 42.9268C66.2837 43.0732 65.8979 43.1465 65.4683 43.1465C64.9312 43.1465 64.46 43.0415 64.0547 42.8315C63.6543 42.6216 63.3418 42.3408 63.1172 41.9893C62.8975 41.6328 62.7876 41.2349 62.7876 40.7954C62.7876 40.3706 62.8706 39.9971 63.0366 39.6748C63.2026 39.3477 63.4419 39.0767 63.7544 38.8618C64.0669 38.6421 64.4429 38.4761 64.8823 38.3638C65.3218 38.2515 65.8125 38.1953 66.3545 38.1953H67.9292ZM76.1763 41.4619V31.75H77.5386V43H76.2935L76.1763 41.4619ZM70.8442 39.1255V38.9717C70.8442 38.3662 70.9175 37.8169 71.064 37.3237C71.2153 36.8257 71.4277 36.3984 71.7012 36.042C71.9795 35.6855 72.3091 35.4121 72.6899 35.2217C73.0757 35.0264 73.5054 34.9287 73.979 34.9287C74.4771 34.9287 74.9116 35.0166 75.2827 35.1924C75.6587 35.3633 75.9761 35.6147 76.2349 35.9468C76.4985 36.2739 76.7061 36.6694 76.8574 37.1333C77.0088 37.5972 77.1138 38.1221 77.1724 38.708V39.3818C77.1187 39.9629 77.0137 40.4854 76.8574 40.9492C76.7061 41.4131 76.4985 41.8086 76.2349 42.1357C75.9761 42.4629 75.6587 42.7144 75.2827 42.8901C74.9067 43.061 74.4673 43.1465 73.9644 43.1465C73.5005 43.1465 73.0757 43.0464 72.6899 42.8462C72.3091 42.646 71.9795 42.3652 71.7012 42.0039C71.4277 41.6426 71.2153 41.2178 71.064 40.7295C70.9175 40.2363 70.8442 39.7017 70.8442 39.1255ZM72.2065 38.9717V39.1255C72.2065 39.521 72.2456 39.8921 72.3237 40.2388C72.4067 40.5854 72.5337 40.8906 72.7046 41.1543C72.8755 41.418 73.0928 41.6255 73.3564 41.7769C73.6201 41.9233 73.9351 41.9966 74.3013 41.9966C74.7505 41.9966 75.1191 41.9014 75.4072 41.7109C75.7002 41.5205 75.9346 41.269 76.1104 40.9565C76.2861 40.644 76.4229 40.3047 76.5205 39.9385V38.1733C76.4619 37.9048 76.3765 37.646 76.2642 37.397C76.1567 37.1431 76.0151 36.9185 75.8394 36.7231C75.6685 36.5229 75.4561 36.3643 75.2021 36.2471C74.9531 36.1299 74.6577 36.0713 74.3159 36.0713C73.9448 36.0713 73.625 36.1494 73.3564 36.3057C73.0928 36.457 72.8755 36.667 72.7046 36.9355C72.5337 37.1992 72.4067 37.5068 72.3237 37.8584C72.2456 38.2051 72.2065 38.5762 72.2065 38.9717ZM81.8745 42.1797L84.0791 35.0752H85.5293L82.3506 44.2231C82.2773 44.4185 82.1797 44.6284 82.0576 44.853C81.9404 45.0825 81.7891 45.2998 81.6035 45.5049C81.418 45.71 81.1934 45.876 80.9297 46.0029C80.6709 46.1348 80.3608 46.2007 79.9995 46.2007C79.8921 46.2007 79.7554 46.186 79.5894 46.1567C79.4233 46.1274 79.3062 46.103 79.2378 46.0835L79.2305 44.9849C79.2695 44.9897 79.3306 44.9946 79.4136 44.9995C79.5015 45.0093 79.5625 45.0142 79.5967 45.0142C79.9043 45.0142 80.1655 44.9727 80.3804 44.8896C80.5952 44.8115 80.7759 44.6772 80.9224 44.4868C81.0737 44.3013 81.2031 44.0449 81.3105 43.7178L81.8745 42.1797ZM80.2559 35.0752L82.314 41.2275L82.6655 42.6558L81.6914 43.1538L78.7764 35.0752H80.2559Z" fill="#444444"/>
<defs>
<filter id="filter0_d_275_613" x="0" y="0" width="111" height="84" filterUnits="userSpaceOnUse" color-interpolation-filters="sRGB">
<feFlood flood-opacity="0" result="BackgroundImageFix"/>
<feColorMatrix in="SourceAlpha" type="matrix" values="0 0 0 0 0 0 0 0 0 0 0 0 0 0 0 0 0 0 127 0" result="hardAlpha"/>
<feOffset dy="4"/>
<feGaussianBlur stdDeviation="3.5"/>
<feComposite in2="hardAlpha" operator="out"/>
<feColorMatrix type="matrix" values="0 0 0 0 0 0 0 0 0 0 0 0 0 0 0 0 0 0 0.07 0"/>
<feBlend mode="normal" in2="BackgroundImageFix" result="effect1_dropShadow_275_613"/>
<feBlend mode="normal" in="SourceGraphic" in2="effect1_dropShadow_275_613" result="shape"/>
</filter>
</defs>
</svg>
